<svg width="217" height="101" viewBox="0 0 217 101" fill="none" xmlns="http://www.w3.org/2000/svg">
<path d="M58.56 22.7V4.7H75.5V22.72H73.06V21.8H60.98V22.7H58.56ZM60.98 6.92V19.56H73.06V6.92H60.98ZM70.82 16.38H72.28V18.5H61.74V16.38H65.72V13.76H62.56V11.74H65.72V10.14H62.14V8.1H71.88V10.14H68.02V11.74H71.52V13.76H70.26C70.78 14.3867 71.2667 15.0267 71.72 15.68L70.82 16.38ZM68.02 13.76V16.38H70.1C69.6867 15.7933 69.24 15.2133 68.76 14.64L69.88 13.76H68.02ZM80.76 7.9V10.12H78.44V5.84H85.74C85.5933 5.49333 85.3533 4.98667 85.02 4.32L87.92 3.82C88.2667 4.58 88.54 5.25333 88.74 5.84H95.58V10.14H93.26V7.9H80.76ZM91.94 14.62C92.4333 15.74 93.0067 16.7067 93.66 17.52C94.3133 18.32 95.1467 19.0667 96.16 19.76L94.64 21.66C93.56 20.86 92.66 19.98 91.94 19.02C91.2333 18.0467 90.5933 16.88 90.02 15.52L89.14 15.9C89.3133 16.7133 89.4 17.72 89.4 18.92C89.4 19.8267 89.3133 20.5467 89.14 21.08C88.9667 21.6133 88.6733 22 88.26 22.24C87.86 22.48 87.3067 22.6067 86.6 22.62C85.68 22.62 84.8867 22.5867 84.22 22.52L83.82 20.36C84.54 20.4667 85.22 20.52 85.86 20.52C86.2733 20.52 86.56 20.38 86.72 20.1C86.8933 19.82 86.98 19.32 86.98 18.6C86.98 18.28 86.9733 18.0467 86.96 17.9C85.9067 18.7133 84.6267 19.5 83.12 20.26C81.6267 21.02 80.16 21.66 78.72 22.18L77.74 20.22C79.5667 19.6867 81.2333 19.06 82.74 18.34C84.26 17.6067 85.5733 16.8067 86.68 15.94C86.6133 15.66 86.5333 15.4133 86.44 15.2C85.4667 15.8533 84.3267 16.48 83.02 17.08C81.7133 17.68 80.36 18.2133 78.96 18.68L78.18 16.76C79.5533 16.36 80.8933 15.8933 82.2 15.36C83.5067 14.8267 84.66 14.2667 85.66 13.68C85.5133 13.4533 85.3733 13.26 85.24 13.1C83.2133 14.14 81.1267 14.9133 78.98 15.42L78.24 13.42C81.0133 12.8067 83.3467 12.0267 85.24 11.08H81.42V9.22H92.58V11.08H88.56C88.1867 11.3733 87.7267 11.68 87.18 12C87.6867 12.5733 88.1133 13.22 88.46 13.94C90.1267 13.18 91.88 12.2267 93.72 11.08L94.9 13.04C93.9933 13.5867 93.0067 14.1133 91.94 14.62ZM97.84 11.42H116.16V14.18H97.84V11.42ZM119.38 11.94C119.113 11.9933 118.713 12.06 118.18 12.14L117.72 9.94C118.067 9.78 118.34 9.54 118.54 9.22C118.94 8.67333 119.393 7.92 119.9 6.96C120.407 5.98667 120.873 5.02667 121.3 4.08L123.24 4.96C122.813 5.85333 122.353 6.74667 121.86 7.64C121.367 8.52 120.907 9.27333 120.48 9.9L122.12 9.6C122.547 8.86667 122.88 8.24667 123.12 7.74L125.06 8.74C124.593 9.62 123.993 10.6333 123.26 11.78C122.527 12.9133 121.867 13.8533 121.28 14.6L124.42 13.88L124.5 15.9C122.927 16.26 121.6 16.5533 120.52 16.78L119.8 16.94L118.56 17.22L117.98 14.94C118.273 14.8333 118.507 14.7067 118.68 14.56C118.867 14.4133 119.06 14.2067 119.26 13.94C119.753 13.3 120.273 12.5533 120.82 11.7L119.38 11.94ZM132.78 17.74C133.807 18.74 135.1 19.68 136.66 20.56L135.42 22.78C133.7 21.6333 132.32 20.5267 131.28 19.46C130.16 20.58 128.673 21.7067 126.82 22.84L125.38 20.98C125.153 21.34 124.787 21.8467 124.28 22.5L122.36 21.12C122.68 20.72 122.987 20.3133 123.28 19.9C121.84 20.34 120.1 20.8067 118.06 21.3L117.66 19.08C119.633 18.64 121.667 18.12 123.76 17.52L123.88 19.04C124.653 17.7867 125.193 16.5067 125.5 15.2C125.82 13.88 126.027 12.2133 126.12 10.2L126.2 7.28H124.64V5.04H134.4V7.28L132.86 10.24H135.48V12.44C134.76 14.5333 133.86 16.3 132.78 17.74ZM132.12 7.28H128.36L128.3 9.08C128.953 11.9067 129.96 14.24 131.32 16.08C132.08 15.0667 132.727 13.8533 133.26 12.44H130.54V10.44L132.12 7.28ZM125.46 20.88C127.233 19.8933 128.68 18.86 129.8 17.78C129.013 16.7133 128.38 15.5933 127.9 14.42C127.7 15.6467 127.407 16.7733 127.02 17.8C126.647 18.8267 126.127 19.8533 125.46 20.88ZM143.56 4.94C143.12 6.52667 142.62 7.96667 142.06 9.26V22.68H139.8V13.4C139.2 14.28 138.7 14.98 138.3 15.5L137.34 12.92C138.033 11.9333 138.767 10.6067 139.54 8.94C140.327 7.27333 140.9 5.73333 141.26 4.32L143.56 4.94ZM151.72 15.6C152.36 16.36 153.053 17.0533 153.8 17.68C154.547 18.3067 155.42 18.9067 156.42 19.48L155.12 21.66C154.093 20.8467 153.227 20.0933 152.52 19.4C151.827 18.6933 151.193 17.9467 150.62 17.16V22.62H148.36V17.06C147.067 18.8333 145.473 20.3667 143.58 21.66L142.34 19.66C143.367 19.0467 144.253 18.4267 145 17.8C145.76 17.16 146.473 16.4267 147.14 15.6H143.2V13.44H148.36V11.94H144.1V4.96H154.86V11.94H150.62V13.44H155.8V15.6H151.72ZM152.48 7.24H146.5V9.68H152.48V7.24ZM175.64 6.52V14.7H167.54C167.447 16.46 167.22 17.9133 166.86 19.06C166.5 20.1933 165.9 21.4533 165.06 22.84L162.92 21.36C163.547 20.4667 164.02 19.64 164.34 18.88C164.66 18.1067 164.88 17.22 165 16.22C165.133 15.22 165.2 13.9067 165.2 12.28V6.52H169.32C169.093 5.86667 168.84 5.19333 168.56 4.5L170.9 3.9C171.207 4.60667 171.533 5.48 171.88 6.52H175.64ZM164.44 13.92C164.053 14.08 163.407 14.3333 162.5 14.68V20.44C162.5 21.0533 162.42 21.5133 162.26 21.82C162.113 22.14 161.847 22.36 161.46 22.48C161.087 22.6133 160.533 22.68 159.8 22.68C159.467 22.68 158.953 22.6533 158.26 22.6L157.78 20.32C158.3 20.4 158.82 20.44 159.34 20.44C159.687 20.44 159.907 20.3867 160 20.28C160.107 20.1733 160.16 19.9533 160.16 19.62V15.54L159.52 15.78L158.06 16.3L157.52 13.92C157.973 13.7733 158.853 13.48 160.16 13.04V9.86H158.12V7.5H160.16V4.38H162.5V7.5H164.28V9.86H162.5V12.18C162.82 12.0467 163.06 11.9533 163.22 11.9C163.7 11.7133 164.04 11.5733 164.24 11.48L164.44 13.92ZM167.6 12.38H173.32V8.82H167.6V11.8V12.38ZM195.8 7.62C195.787 9.55333 195.747 11.6933 195.68 14.04C195.613 16.3867 195.52 18.2333 195.4 19.58C195.333 20.2733 195.213 20.8133 195.04 21.2C194.867 21.5867 194.593 21.8667 194.22 22.04C193.86 22.2267 193.367 22.3333 192.74 22.36C191.913 22.3867 191.153 22.3533 190.46 22.26L189.98 19.84C190.74 19.9733 191.4 20.04 191.96 20.04C192.4 20.04 192.7 19.9333 192.86 19.72C193.02 19.4933 193.133 19.0533 193.2 18.4C193.307 17.3733 193.38 16.0733 193.42 14.5C193.473 12.9133 193.5 11.4133 193.5 10H191.3C191.193 12.4933 191.047 14.4067 190.86 15.74C190.687 17.06 190.36 18.26 189.88 19.34C189.413 20.42 188.673 21.6 187.66 22.88L185.58 21.42C186.073 20.8467 186.473 20.34 186.78 19.9L185.38 20.62L185.04 19.66C182.453 20.2467 180.533 20.6667 179.28 20.92C178.893 20.9867 178.573 21.06 178.32 21.14L177.64 18.7C177.893 18.5933 178.067 18.48 178.16 18.36C178.267 18.24 178.38 18.0667 178.5 17.84C178.713 17.4533 179 16.7533 179.36 15.74C179.733 14.7267 180.073 13.72 180.38 12.72H177.8V10.44H186.74V12.72H182.9C182.62 13.64 182.267 14.6667 181.84 15.8C181.427 16.9333 181.087 17.78 180.82 18.34L182.04 18.08L184.26 17.58C183.873 16.6067 183.5 15.7267 183.14 14.94L185.18 14.18C185.66 15.2067 186.347 16.88 187.24 19.2C187.667 18.48 188 17.7267 188.24 16.94C188.48 16.14 188.653 15.2067 188.76 14.14C188.88 13.0733 188.973 11.6933 189.04 10H186.94V7.62H189.12L189.2 4.14H191.44C191.44 5.07333 191.42 6.23333 191.38 7.62H195.8ZM178.62 5.28H186.2V7.58H178.62V5.28ZM215.88 6.96C215.867 8.96 215.813 11.0867 215.72 13.34C215.627 15.58 215.5 17.56 215.34 19.28C215.247 20.3067 214.98 21.04 214.54 21.48C214.113 21.9333 213.473 22.1733 212.62 22.2C211.94 22.2133 211.173 22.1867 210.32 22.12L209.92 19.94C210.747 20.0333 211.447 20.0733 212.02 20.06C212.46 20.0467 212.753 19.92 212.9 19.68C213.06 19.44 213.18 18.9733 213.26 18.28C213.407 16.9067 213.52 15.3933 213.6 13.74C213.693 12.0867 213.74 10.5333 213.74 9.08H212.96C212.693 11.2 212.367 12.9733 211.98 14.4C211.607 15.8133 211.04 17.1533 210.28 18.42C209.533 19.6733 208.493 20.94 207.16 22.22L205.5 20.6C206.713 19.52 207.693 18.4 208.44 17.24C209.2 16.0667 209.787 14.8333 210.2 13.54C210.613 12.2467 210.94 10.76 211.18 9.08H210.06C209.687 11.1867 209.173 12.9467 208.52 14.36C207.867 15.76 206.873 17.1467 205.54 18.52L203.96 16.96C205.133 15.84 206.053 14.6533 206.72 13.4C207.387 12.1333 207.893 10.6933 208.24 9.08H207.36C206.907 10.0933 206.333 11.1533 205.64 12.26L203.94 11.06C204.1 10.8467 204.233 10.6333 204.34 10.42H203.1V13.3C203.967 12.9667 204.5 12.76 204.7 12.68L204.9 14.98L203.1 15.72V22.6H200.92V16.6L198.36 17.64L197.7 15.28C198.153 15.1467 199.227 14.76 200.92 14.12V10.42H199.92C199.773 11.7 199.62 12.72 199.46 13.48L197.48 13.1C197.747 11.9533 197.96 10.7467 198.12 9.48C198.293 8.21333 198.407 6.99333 198.46 5.82L200.3 5.96C200.273 6.30667 200.22 7.02667 200.14 8.12H201.08V4.18H203.1V8.12H204.62V9.96C205.593 8.2 206.393 6.18667 207.02 3.92L209.08 4.44C208.773 5.49333 208.5 6.33333 208.26 6.96H215.88Z" fill="white"/>
<path d="M24.8076 23C23.0802 23 21.6804 22.3488 20.6082 21.0463C19.5361 19.6847 19 17.6126 19 14.8301C19 10.8044 20.0424 7.48906 22.1271 4.88417C24.2715 2.27928 27.071 0.651221 30.5258 0V4.17374C26.4754 5.41699 24.331 8.28829 24.0928 12.7876C24.2715 12.7284 24.5395 12.6988 24.8969 12.6988C26.386 12.6988 27.5475 13.2021 28.3814 14.2085C29.2749 15.2149 29.7216 16.4286 29.7216 17.8494C29.7216 19.2703 29.2451 20.4839 28.2921 21.4903C27.3986 22.4968 26.2371 23 24.8076 23ZM39.2818 23C37.5544 23 36.1546 22.3488 35.0825 21.0463C34.0103 19.6847 33.4742 17.6126 33.4742 14.8301C33.4742 10.8044 34.5166 7.48906 36.6014 4.88417C38.7457 2.27928 41.5452 0.651221 45 0V4.17374C40.9496 5.41699 38.8053 8.28829 38.567 12.7876C38.7457 12.7284 39.0137 12.6988 39.3711 12.6988C40.8603 12.6988 42.0218 13.2021 42.8557 14.2085C43.7491 15.2149 44.1959 16.4286 44.1959 17.8494C44.1959 19.2703 43.7194 20.4839 42.7663 21.4903C41.8729 22.4968 40.7113 23 39.2818 23Z" fill="white"/>
<path d="M14.575 54.945C10.0283 51.315 6.765 48.84 4.785 47.52L8.69 42.185C12.8333 44.9717 16.1517 47.3367 18.645 49.28L14.575 54.945ZM38.775 52.415V83.655H52.8V90.31H16.995V83.655H31.735V52.415H20.24V45.65H50.82V52.415H38.775ZM12.76 68.255C10.0467 66.0183 6.47167 63.2867 2.035 60.06L5.775 54.56C10.5783 57.8233 14.2083 60.4083 16.665 62.315L12.76 68.255ZM18.425 75.02C14.1717 83.3433 11.2017 89.0817 9.515 92.235L3.245 88.825C3.83167 87.945 5.335 85.195 7.755 80.575C10.2117 75.9183 11.715 72.9667 12.265 71.72L18.425 75.02ZM59.895 43.615H75.075V86.02C75.075 87.7067 74.8917 88.9717 74.525 89.815C74.1583 90.6583 73.59 91.2083 72.82 91.465C72.0867 91.7583 70.9867 91.905 69.52 91.905C68.75 91.905 67.7783 91.8317 66.605 91.685L65.395 85.91C66.275 86.13 67.155 86.24 68.035 86.24C68.5483 86.24 68.915 86.075 69.135 85.745C69.355 85.3783 69.465 84.7367 69.465 83.82V75.9H65.505C65.3217 79.3833 64.9183 82.39 64.295 84.92C63.6717 87.45 62.7183 90.0167 61.435 92.62L56.045 89.265C57.1817 87.285 58.0067 85.36 58.52 83.49C59.07 81.62 59.4367 79.2917 59.62 76.505C59.8033 73.6817 59.895 69.6117 59.895 64.295V43.615ZM104.5 87.505C100.797 82.1517 97.9917 75.625 96.085 67.925C96.0117 67.9617 95.9383 68.0167 95.865 68.09C95.7917 68.1633 95.6817 68.2367 95.535 68.31C96.2683 71.83 96.635 76.2117 96.635 81.455C96.635 84.3883 96.415 86.625 95.975 88.165C95.535 89.7417 94.82 90.8233 93.83 91.41C92.8767 92.0333 91.5383 92.3633 89.815 92.4L87.945 92.455C86.8083 92.455 85.415 92.3633 83.765 92.18L82.555 85.91C84.425 86.1667 86.2583 86.2767 88.055 86.24C88.9717 86.24 89.6317 85.8 90.035 84.92C90.475 84.04 90.695 82.5 90.695 80.3C90.695 79.3833 90.6583 78.0817 90.585 76.395C88.825 78.4117 86.9917 80.245 85.085 81.895C83.215 83.545 81.0517 85.25 78.595 87.01L75.9 81.455C78.5033 79.8783 80.96 78.045 83.27 75.955C85.6167 73.8283 87.7067 71.5367 89.54 69.08L88.88 66.605C85.5433 69.7583 82.0967 72.4717 78.54 74.745L76.175 69.795C77.9717 68.7317 79.8233 67.4483 81.73 65.945C83.6367 64.4417 85.36 62.92 86.9 61.38L85.91 59.4C83.38 61.1233 80.9967 62.5717 78.76 63.745L76.505 58.135C78.4483 57.2917 80.41 56.21 82.39 54.89C84.4067 53.57 86.2767 52.1217 88 50.545H78.155V44.44H106.755V50.545H96.25C94.6733 52.305 92.8767 54.01 90.86 55.66C92.18 58.1167 93.225 60.445 93.995 62.645C96.525 60.665 99.605 58.0067 103.235 54.67L106.865 59.235C104.958 60.9217 102.777 62.7367 100.32 64.68C102.227 72.16 105.05 78.2833 108.79 83.05L104.5 87.505ZM69.465 56.925V49.72H65.615V56.925H69.465ZM65.615 62.81V70.18H69.465V62.81H65.615Z" fill="white"/>
</svg>
