<svg width="299" height="101" viewBox="0 0 299 101" fill="none" xmlns="http://www.w3.org/2000/svg">
<path d="M140.56 22.7V4.7H157.5V22.72H155.06V21.8H142.98V22.7H140.56ZM142.98 6.92V19.56H155.06V6.92H142.98ZM152.82 16.38H154.28V18.5H143.74V16.38H147.72V13.76H144.56V11.74H147.72V10.14H144.14V8.1H153.88V10.14H150.02V11.74H153.52V13.76H152.26C152.78 14.3867 153.267 15.0267 153.72 15.68L152.82 16.38ZM150.02 13.76V16.38H152.1C151.687 15.7933 151.24 15.2133 150.76 14.64L151.88 13.76H150.02ZM162.76 7.9V10.12H160.44V5.84H167.74C167.593 5.49333 167.353 4.98667 167.02 4.32L169.92 3.82C170.267 4.58 170.54 5.25333 170.74 5.84H177.58V10.14H175.26V7.9H162.76ZM173.94 14.62C174.433 15.74 175.007 16.7067 175.66 17.52C176.313 18.32 177.147 19.0667 178.16 19.76L176.64 21.66C175.56 20.86 174.66 19.98 173.94 19.02C173.233 18.0467 172.593 16.88 172.02 15.52L171.14 15.9C171.313 16.7133 171.4 17.72 171.4 18.92C171.4 19.8267 171.313 20.5467 171.14 21.08C170.967 21.6133 170.673 22 170.26 22.24C169.86 22.48 169.307 22.6067 168.6 22.62C167.68 22.62 166.887 22.5867 166.22 22.52L165.82 20.36C166.54 20.4667 167.22 20.52 167.86 20.52C168.273 20.52 168.56 20.38 168.72 20.1C168.893 19.82 168.98 19.32 168.98 18.6C168.98 18.28 168.973 18.0467 168.96 17.9C167.907 18.7133 166.627 19.5 165.12 20.26C163.627 21.02 162.16 21.66 160.72 22.18L159.74 20.22C161.567 19.6867 163.233 19.06 164.74 18.34C166.26 17.6067 167.573 16.8067 168.68 15.94C168.613 15.66 168.533 15.4133 168.44 15.2C167.467 15.8533 166.327 16.48 165.02 17.08C163.713 17.68 162.36 18.2133 160.96 18.68L160.18 16.76C161.553 16.36 162.893 15.8933 164.2 15.36C165.507 14.8267 166.66 14.2667 167.66 13.68C167.513 13.4533 167.373 13.26 167.24 13.1C165.213 14.14 163.127 14.9133 160.98 15.42L160.24 13.42C163.013 12.8067 165.347 12.0267 167.24 11.08H163.42V9.22H174.58V11.08H170.56C170.187 11.3733 169.727 11.68 169.18 12C169.687 12.5733 170.113 13.22 170.46 13.94C172.127 13.18 173.88 12.2267 175.72 11.08L176.9 13.04C175.993 13.5867 175.007 14.1133 173.94 14.62ZM179.84 11.42H198.16V14.18H179.84V11.42ZM201.38 11.94C201.113 11.9933 200.713 12.06 200.18 12.14L199.72 9.94C200.067 9.78 200.34 9.54 200.54 9.22C200.94 8.67333 201.393 7.92 201.9 6.96C202.407 5.98667 202.873 5.02667 203.3 4.08L205.24 4.96C204.813 5.85333 204.353 6.74667 203.86 7.64C203.367 8.52 202.907 9.27333 202.48 9.9L204.12 9.6C204.547 8.86667 204.88 8.24667 205.12 7.74L207.06 8.74C206.593 9.62 205.993 10.6333 205.26 11.78C204.527 12.9133 203.867 13.8533 203.28 14.6L206.42 13.88L206.5 15.9C204.927 16.26 203.6 16.5533 202.52 16.78L201.8 16.94L200.56 17.22L199.98 14.94C200.273 14.8333 200.507 14.7067 200.68 14.56C200.867 14.4133 201.06 14.2067 201.26 13.94C201.753 13.3 202.273 12.5533 202.82 11.7L201.38 11.94ZM214.78 17.74C215.807 18.74 217.1 19.68 218.66 20.56L217.42 22.78C215.7 21.6333 214.32 20.5267 213.28 19.46C212.16 20.58 210.673 21.7067 208.82 22.84L207.38 20.98C207.153 21.34 206.787 21.8467 206.28 22.5L204.36 21.12C204.68 20.72 204.987 20.3133 205.28 19.9C203.84 20.34 202.1 20.8067 200.06 21.3L199.66 19.08C201.633 18.64 203.667 18.12 205.76 17.52L205.88 19.04C206.653 17.7867 207.193 16.5067 207.5 15.2C207.82 13.88 208.027 12.2133 208.12 10.2L208.2 7.28H206.64V5.04H216.4V7.28L214.86 10.24H217.48V12.44C216.76 14.5333 215.86 16.3 214.78 17.74ZM214.12 7.28H210.36L210.3 9.08C210.953 11.9067 211.96 14.24 213.32 16.08C214.08 15.0667 214.727 13.8533 215.26 12.44H212.54V10.44L214.12 7.28ZM207.46 20.88C209.233 19.8933 210.68 18.86 211.8 17.78C211.013 16.7133 210.38 15.5933 209.9 14.42C209.7 15.6467 209.407 16.7733 209.02 17.8C208.647 18.8267 208.127 19.8533 207.46 20.88ZM225.56 4.94C225.12 6.52667 224.62 7.96667 224.06 9.26V22.68H221.8V13.4C221.2 14.28 220.7 14.98 220.3 15.5L219.34 12.92C220.033 11.9333 220.767 10.6067 221.54 8.94C222.327 7.27333 222.9 5.73333 223.26 4.32L225.56 4.94ZM233.72 15.6C234.36 16.36 235.053 17.0533 235.8 17.68C236.547 18.3067 237.42 18.9067 238.42 19.48L237.12 21.66C236.093 20.8467 235.227 20.0933 234.52 19.4C233.827 18.6933 233.193 17.9467 232.62 17.16V22.62H230.36V17.06C229.067 18.8333 227.473 20.3667 225.58 21.66L224.34 19.66C225.367 19.0467 226.253 18.4267 227 17.8C227.76 17.16 228.473 16.4267 229.14 15.6H225.2V13.44H230.36V11.94H226.1V4.96H236.86V11.94H232.62V13.44H237.8V15.6H233.72ZM234.48 7.24H228.5V9.68H234.48V7.24ZM257.64 6.52V14.7H249.54C249.447 16.46 249.22 17.9133 248.86 19.06C248.5 20.1933 247.9 21.4533 247.06 22.84L244.92 21.36C245.547 20.4667 246.02 19.64 246.34 18.88C246.66 18.1067 246.88 17.22 247 16.22C247.133 15.22 247.2 13.9067 247.2 12.28V6.52H251.32C251.093 5.86667 250.84 5.19333 250.56 4.5L252.9 3.9C253.207 4.60667 253.533 5.48 253.88 6.52H257.64ZM246.44 13.92C246.053 14.08 245.407 14.3333 244.5 14.68V20.44C244.5 21.0533 244.42 21.5133 244.26 21.82C244.113 22.14 243.847 22.36 243.46 22.48C243.087 22.6133 242.533 22.68 241.8 22.68C241.467 22.68 240.953 22.6533 240.26 22.6L239.78 20.32C240.3 20.4 240.82 20.44 241.34 20.44C241.687 20.44 241.907 20.3867 242 20.28C242.107 20.1733 242.16 19.9533 242.16 19.62V15.54L241.52 15.78L240.06 16.3L239.52 13.92C239.973 13.7733 240.853 13.48 242.16 13.04V9.86H240.12V7.5H242.16V4.38H244.5V7.5H246.28V9.86H244.5V12.18C244.82 12.0467 245.06 11.9533 245.22 11.9C245.7 11.7133 246.04 11.5733 246.24 11.48L246.44 13.92ZM249.6 12.38H255.32V8.82H249.6V11.8V12.38ZM277.8 7.62C277.787 9.55333 277.747 11.6933 277.68 14.04C277.613 16.3867 277.52 18.2333 277.4 19.58C277.333 20.2733 277.213 20.8133 277.04 21.2C276.867 21.5867 276.593 21.8667 276.22 22.04C275.86 22.2267 275.367 22.3333 274.74 22.36C273.913 22.3867 273.153 22.3533 272.46 22.26L271.98 19.84C272.74 19.9733 273.4 20.04 273.96 20.04C274.4 20.04 274.7 19.9333 274.86 19.72C275.02 19.4933 275.133 19.0533 275.2 18.4C275.307 17.3733 275.38 16.0733 275.42 14.5C275.473 12.9133 275.5 11.4133 275.5 10H273.3C273.193 12.4933 273.047 14.4067 272.86 15.74C272.687 17.06 272.36 18.26 271.88 19.34C271.413 20.42 270.673 21.6 269.66 22.88L267.58 21.42C268.073 20.8467 268.473 20.34 268.78 19.9L267.38 20.62L267.04 19.66C264.453 20.2467 262.533 20.6667 261.28 20.92C260.893 20.9867 260.573 21.06 260.32 21.14L259.64 18.7C259.893 18.5933 260.067 18.48 260.16 18.36C260.267 18.24 260.38 18.0667 260.5 17.84C260.713 17.4533 261 16.7533 261.36 15.74C261.733 14.7267 262.073 13.72 262.38 12.72H259.8V10.44H268.74V12.72H264.9C264.62 13.64 264.267 14.6667 263.84 15.8C263.427 16.9333 263.087 17.78 262.82 18.34L264.04 18.08L266.26 17.58C265.873 16.6067 265.5 15.7267 265.14 14.94L267.18 14.18C267.66 15.2067 268.347 16.88 269.24 19.2C269.667 18.48 270 17.7267 270.24 16.94C270.48 16.14 270.653 15.2067 270.76 14.14C270.88 13.0733 270.973 11.6933 271.04 10H268.94V7.62H271.12L271.2 4.14H273.44C273.44 5.07333 273.42 6.23333 273.38 7.62H277.8ZM260.62 5.28H268.2V7.58H260.62V5.28ZM297.88 6.96C297.867 8.96 297.813 11.0867 297.72 13.34C297.627 15.58 297.5 17.56 297.34 19.28C297.247 20.3067 296.98 21.04 296.54 21.48C296.113 21.9333 295.473 22.1733 294.62 22.2C293.94 22.2133 293.173 22.1867 292.32 22.12L291.92 19.94C292.747 20.0333 293.447 20.0733 294.02 20.06C294.46 20.0467 294.753 19.92 294.9 19.68C295.06 19.44 295.18 18.9733 295.26 18.28C295.407 16.9067 295.52 15.3933 295.6 13.74C295.693 12.0867 295.74 10.5333 295.74 9.08H294.96C294.693 11.2 294.367 12.9733 293.98 14.4C293.607 15.8133 293.04 17.1533 292.28 18.42C291.533 19.6733 290.493 20.94 289.16 22.22L287.5 20.6C288.713 19.52 289.693 18.4 290.44 17.24C291.2 16.0667 291.787 14.8333 292.2 13.54C292.613 12.2467 292.94 10.76 293.18 9.08H292.06C291.687 11.1867 291.173 12.9467 290.52 14.36C289.867 15.76 288.873 17.1467 287.54 18.52L285.96 16.96C287.133 15.84 288.053 14.6533 288.72 13.4C289.387 12.1333 289.893 10.6933 290.24 9.08H289.36C288.907 10.0933 288.333 11.1533 287.64 12.26L285.94 11.06C286.1 10.8467 286.233 10.6333 286.34 10.42H285.1V13.3C285.967 12.9667 286.5 12.76 286.7 12.68L286.9 14.98L285.1 15.72V22.6H282.92V16.6L280.36 17.64L279.7 15.28C280.153 15.1467 281.227 14.76 282.92 14.12V10.42H281.92C281.773 11.7 281.62 12.72 281.46 13.48L279.48 13.1C279.747 11.9533 279.96 10.7467 280.12 9.48C280.293 8.21333 280.407 6.99333 280.46 5.82L282.3 5.96C282.273 6.30667 282.22 7.02667 282.14 8.12H283.08V4.18H285.1V8.12H286.62V9.96C287.593 8.2 288.393 6.18667 289.02 3.92L291.08 4.44C290.773 5.49333 290.5 6.33333 290.26 6.96H297.88Z" fill="white"/>
<path d="M106.808 23C105.08 23 103.68 22.3488 102.608 21.0463C101.536 19.6847 101 17.6126 101 14.8301C101 10.8044 102.042 7.48906 104.127 4.88417C106.271 2.27928 109.071 0.651221 112.526 0V4.17374C108.475 5.41699 106.331 8.28829 106.093 12.7876C106.271 12.7284 106.54 12.6988 106.897 12.6988C108.386 12.6988 109.548 13.2021 110.381 14.2085C111.275 15.2149 111.722 16.4286 111.722 17.8494C111.722 19.2703 111.245 20.4839 110.292 21.4903C109.399 22.4968 108.237 23 106.808 23ZM121.282 23C119.554 23 118.155 22.3488 117.082 21.0463C116.01 19.6847 115.474 17.6126 115.474 14.8301C115.474 10.8044 116.517 7.48906 118.601 4.88417C120.746 2.27928 123.545 0.651221 127 0V4.17374C122.95 5.41699 120.805 8.28829 120.567 12.7876C120.746 12.7284 121.014 12.6988 121.371 12.6988C122.86 12.6988 124.022 13.2021 124.856 14.2085C125.749 15.2149 126.196 16.4286 126.196 17.8494C126.196 19.2703 125.719 20.4839 124.766 21.4903C123.873 22.4968 122.711 23 121.282 23Z" fill="white"/>
<path d="M30.855 50.93H49.94V76.67H30.855V92.51H23.98V76.67H5.06V50.93H23.98V41.91H30.855V50.93ZM11.935 57.64V70.015H23.98V57.64H11.935ZM30.855 70.015H43.01V57.64H30.855V70.015ZM65.23 59.62C64.0567 60.7567 62.4067 62.2233 60.28 64.02L57.2 58.355C60.0233 55.9717 62.6633 53.2583 65.12 50.215C67.6133 47.1717 69.6667 44.0917 71.28 40.975L77.165 43.505C75.405 46.695 73.645 49.5183 71.885 51.975V71.5H65.23V59.62ZM74.195 56.54C76.5783 55.9167 79.255 55.1283 82.225 54.175V42.24H88.935V51.535C93.5183 49.5183 98.065 47.0433 102.575 44.11L105.655 49.665C100.558 53.1483 94.985 56.0817 88.935 58.465V60.83C88.935 61.9667 89.1367 62.7367 89.54 63.14C89.98 63.5433 90.75 63.7817 91.85 63.855C92.4 63.8917 93.225 63.91 94.325 63.91C95.6817 63.91 96.7083 63.8733 97.405 63.8C98.725 63.69 99.5867 63.4517 99.99 63.085C100.43 62.7183 100.723 61.9667 100.87 60.83C101.053 59.07 101.145 57.4567 101.145 55.99L107.25 57.75C107.14 59.73 107.012 61.49 106.865 63.03C106.572 64.9 106.15 66.2933 105.6 67.21C105.087 68.1267 104.298 68.7867 103.235 69.19C102.208 69.5567 100.668 69.8133 98.615 69.96C97.0017 70.07 95.3883 70.125 93.775 70.125C92.1617 70.125 90.5483 70.07 88.935 69.96C87.285 69.8133 85.9833 69.5383 85.03 69.135C84.0767 68.695 83.3617 67.9983 82.885 67.045C82.445 66.055 82.225 64.68 82.225 62.92V60.94C80.5383 61.5267 78.54 62.15 76.23 62.81L74.195 56.54ZM85.965 74.69H107.305V81.29H85.965V92.785H79.145V81.29H57.915V74.69H79.145V70.29H85.965V74.69ZM120.505 51.37V55.935H114.125V45.87H134.145L133.595 44.605C133.082 43.4317 132.733 42.68 132.55 42.35L139.975 40.81L142.285 45.87H161.425V55.605H154.935V51.37H120.505ZM161.59 72.435V77.99H150.755V85.305C150.755 87.1017 150.517 88.495 150.04 89.485C149.563 90.5117 148.775 91.245 147.675 91.685C146.612 92.125 145.108 92.3633 143.165 92.4C140.122 92.4 137.61 92.29 135.63 92.07L134.365 85.965C136.785 86.2583 139.022 86.405 141.075 86.405C142.248 86.405 143.018 86.185 143.385 85.745C143.788 85.2683 143.99 84.37 143.99 83.05V77.99H142.725C139.425 80.85 135.502 83.4167 130.955 85.69C126.408 87.9633 121.147 90.0717 115.17 92.015L112.31 85.855C116.783 84.6817 120.707 83.4717 124.08 82.225C127.453 80.9417 130.442 79.53 133.045 77.99H117.92V72.435C118.067 72.1417 118.36 71.4633 118.8 70.4C119.24 69.3367 119.607 68.5117 119.9 67.925L126.665 68.64C126.592 68.8233 126.5 69.025 126.39 69.245C126.317 69.465 126.225 69.7217 126.115 70.015C125.785 70.9317 125.455 71.7383 125.125 72.435H143.99V66.99H115.28V61.435H119.13L117.59 57.585C119.937 56.925 122.632 56.0267 125.675 54.89C128.755 53.7533 131.322 52.7083 133.375 51.755L135.685 56.32C133.815 57.1633 131.633 58.0617 129.14 59.015C126.683 59.9683 124.337 60.775 122.1 61.435H154.11C147.803 59.1983 142.872 57.5667 139.315 56.54L141.24 52.03C142.89 52.47 145.457 53.2583 148.94 54.395C152.423 55.495 155.155 56.3933 157.135 57.09L155.32 61.435H160.105V66.99H150.755V72.435H161.59ZM207.9 82.225V51.26H214.445V92.235H207.9V89.045H170.61V51.26H177.21V82.225H189.31V42.515H195.8V82.225H207.9ZM225.665 43.67H269.225V78.155H250.855V92.4H244.035V78.155H225.665V43.67ZM244.035 57.585V50.38H232.485V57.585H244.035ZM250.855 57.585H262.35V50.38H250.855V57.585ZM232.485 64.075V71.445H244.035V64.075H232.485ZM250.855 64.075V71.445H262.35V64.075H250.855Z" fill="white"/>
</svg>
