<svg width="216" height="108" viewBox="0 0 216 108" fill="none" xmlns="http://www.w3.org/2000/svg">
<path d="M57.56 22.7V4.7H74.5V22.72H72.06V21.8H59.98V22.7H57.56ZM59.98 6.92V19.56H72.06V6.92H59.98ZM69.82 16.38H71.28V18.5H60.74V16.38H64.72V13.76H61.56V11.74H64.72V10.14H61.14V8.1H70.88V10.14H67.02V11.74H70.52V13.76H69.26C69.78 14.3867 70.2667 15.0267 70.72 15.68L69.82 16.38ZM67.02 13.76V16.38H69.1C68.6867 15.7933 68.24 15.2133 67.76 14.64L68.88 13.76H67.02ZM79.76 7.9V10.12H77.44V5.84H84.74C84.5933 5.49333 84.3533 4.98667 84.02 4.32L86.92 3.82C87.2667 4.58 87.54 5.25333 87.74 5.84H94.58V10.14H92.26V7.9H79.76ZM90.94 14.62C91.4333 15.74 92.0067 16.7067 92.66 17.52C93.3133 18.32 94.1467 19.0667 95.16 19.76L93.64 21.66C92.56 20.86 91.66 19.98 90.94 19.02C90.2333 18.0467 89.5933 16.88 89.02 15.52L88.14 15.9C88.3133 16.7133 88.4 17.72 88.4 18.92C88.4 19.8267 88.3133 20.5467 88.14 21.08C87.9667 21.6133 87.6733 22 87.26 22.24C86.86 22.48 86.3067 22.6067 85.6 22.62C84.68 22.62 83.8867 22.5867 83.22 22.52L82.82 20.36C83.54 20.4667 84.22 20.52 84.86 20.52C85.2733 20.52 85.56 20.38 85.72 20.1C85.8933 19.82 85.98 19.32 85.98 18.6C85.98 18.28 85.9733 18.0467 85.96 17.9C84.9067 18.7133 83.6267 19.5 82.12 20.26C80.6267 21.02 79.16 21.66 77.72 22.18L76.74 20.22C78.5667 19.6867 80.2333 19.06 81.74 18.34C83.26 17.6067 84.5733 16.8067 85.68 15.94C85.6133 15.66 85.5333 15.4133 85.44 15.2C84.4667 15.8533 83.3267 16.48 82.02 17.08C80.7133 17.68 79.36 18.2133 77.96 18.68L77.18 16.76C78.5533 16.36 79.8933 15.8933 81.2 15.36C82.5067 14.8267 83.66 14.2667 84.66 13.68C84.5133 13.4533 84.3733 13.26 84.24 13.1C82.2133 14.14 80.1267 14.9133 77.98 15.42L77.24 13.42C80.0133 12.8067 82.3467 12.0267 84.24 11.08H80.42V9.22H91.58V11.08H87.56C87.1867 11.3733 86.7267 11.68 86.18 12C86.6867 12.5733 87.1133 13.22 87.46 13.94C89.1267 13.18 90.88 12.2267 92.72 11.08L93.9 13.04C92.9933 13.5867 92.0067 14.1133 90.94 14.62ZM96.84 11.42H115.16V14.18H96.84V11.42ZM118.38 11.94C118.113 11.9933 117.713 12.06 117.18 12.14L116.72 9.94C117.067 9.78 117.34 9.54 117.54 9.22C117.94 8.67333 118.393 7.92 118.9 6.96C119.407 5.98667 119.873 5.02667 120.3 4.08L122.24 4.96C121.813 5.85333 121.353 6.74667 120.86 7.64C120.367 8.52 119.907 9.27333 119.48 9.9L121.12 9.6C121.547 8.86667 121.88 8.24667 122.12 7.74L124.06 8.74C123.593 9.62 122.993 10.6333 122.26 11.78C121.527 12.9133 120.867 13.8533 120.28 14.6L123.42 13.88L123.5 15.9C121.927 16.26 120.6 16.5533 119.52 16.78L118.8 16.94L117.56 17.22L116.98 14.94C117.273 14.8333 117.507 14.7067 117.68 14.56C117.867 14.4133 118.06 14.2067 118.26 13.94C118.753 13.3 119.273 12.5533 119.82 11.7L118.38 11.94ZM131.78 17.74C132.807 18.74 134.1 19.68 135.66 20.56L134.42 22.78C132.7 21.6333 131.32 20.5267 130.28 19.46C129.16 20.58 127.673 21.7067 125.82 22.84L124.38 20.98C124.153 21.34 123.787 21.8467 123.28 22.5L121.36 21.12C121.68 20.72 121.987 20.3133 122.28 19.9C120.84 20.34 119.1 20.8067 117.06 21.3L116.66 19.08C118.633 18.64 120.667 18.12 122.76 17.52L122.88 19.04C123.653 17.7867 124.193 16.5067 124.5 15.2C124.82 13.88 125.027 12.2133 125.12 10.2L125.2 7.28H123.64V5.04H133.4V7.28L131.86 10.24H134.48V12.44C133.76 14.5333 132.86 16.3 131.78 17.74ZM131.12 7.28H127.36L127.3 9.08C127.953 11.9067 128.96 14.24 130.32 16.08C131.08 15.0667 131.727 13.8533 132.26 12.44H129.54V10.44L131.12 7.28ZM124.46 20.88C126.233 19.8933 127.68 18.86 128.8 17.78C128.013 16.7133 127.38 15.5933 126.9 14.42C126.7 15.6467 126.407 16.7733 126.02 17.8C125.647 18.8267 125.127 19.8533 124.46 20.88ZM142.56 4.94C142.12 6.52667 141.62 7.96667 141.06 9.26V22.68H138.8V13.4C138.2 14.28 137.7 14.98 137.3 15.5L136.34 12.92C137.033 11.9333 137.767 10.6067 138.54 8.94C139.327 7.27333 139.9 5.73333 140.26 4.32L142.56 4.94ZM150.72 15.6C151.36 16.36 152.053 17.0533 152.8 17.68C153.547 18.3067 154.42 18.9067 155.42 19.48L154.12 21.66C153.093 20.8467 152.227 20.0933 151.52 19.4C150.827 18.6933 150.193 17.9467 149.62 17.16V22.62H147.36V17.06C146.067 18.8333 144.473 20.3667 142.58 21.66L141.34 19.66C142.367 19.0467 143.253 18.4267 144 17.8C144.76 17.16 145.473 16.4267 146.14 15.6H142.2V13.44H147.36V11.94H143.1V4.96H153.86V11.94H149.62V13.44H154.8V15.6H150.72ZM151.48 7.24H145.5V9.68H151.48V7.24ZM174.64 6.52V14.7H166.54C166.447 16.46 166.22 17.9133 165.86 19.06C165.5 20.1933 164.9 21.4533 164.06 22.84L161.92 21.36C162.547 20.4667 163.02 19.64 163.34 18.88C163.66 18.1067 163.88 17.22 164 16.22C164.133 15.22 164.2 13.9067 164.2 12.28V6.52H168.32C168.093 5.86667 167.84 5.19333 167.56 4.5L169.9 3.9C170.207 4.60667 170.533 5.48 170.88 6.52H174.64ZM163.44 13.92C163.053 14.08 162.407 14.3333 161.5 14.68V20.44C161.5 21.0533 161.42 21.5133 161.26 21.82C161.113 22.14 160.847 22.36 160.46 22.48C160.087 22.6133 159.533 22.68 158.8 22.68C158.467 22.68 157.953 22.6533 157.26 22.6L156.78 20.32C157.3 20.4 157.82 20.44 158.34 20.44C158.687 20.44 158.907 20.3867 159 20.28C159.107 20.1733 159.16 19.9533 159.16 19.62V15.54L158.52 15.78L157.06 16.3L156.52 13.92C156.973 13.7733 157.853 13.48 159.16 13.04V9.86H157.12V7.5H159.16V4.38H161.5V7.5H163.28V9.86H161.5V12.18C161.82 12.0467 162.06 11.9533 162.22 11.9C162.7 11.7133 163.04 11.5733 163.24 11.48L163.44 13.92ZM166.6 12.38H172.32V8.82H166.6V11.8V12.38ZM194.8 7.62C194.787 9.55333 194.747 11.6933 194.68 14.04C194.613 16.3867 194.52 18.2333 194.4 19.58C194.333 20.2733 194.213 20.8133 194.04 21.2C193.867 21.5867 193.593 21.8667 193.22 22.04C192.86 22.2267 192.367 22.3333 191.74 22.36C190.913 22.3867 190.153 22.3533 189.46 22.26L188.98 19.84C189.74 19.9733 190.4 20.04 190.96 20.04C191.4 20.04 191.7 19.9333 191.86 19.72C192.02 19.4933 192.133 19.0533 192.2 18.4C192.307 17.3733 192.38 16.0733 192.42 14.5C192.473 12.9133 192.5 11.4133 192.5 10H190.3C190.193 12.4933 190.047 14.4067 189.86 15.74C189.687 17.06 189.36 18.26 188.88 19.34C188.413 20.42 187.673 21.6 186.66 22.88L184.58 21.42C185.073 20.8467 185.473 20.34 185.78 19.9L184.38 20.62L184.04 19.66C181.453 20.2467 179.533 20.6667 178.28 20.92C177.893 20.9867 177.573 21.06 177.32 21.14L176.64 18.7C176.893 18.5933 177.067 18.48 177.16 18.36C177.267 18.24 177.38 18.0667 177.5 17.84C177.713 17.4533 178 16.7533 178.36 15.74C178.733 14.7267 179.073 13.72 179.38 12.72H176.8V10.44H185.74V12.72H181.9C181.62 13.64 181.267 14.6667 180.84 15.8C180.427 16.9333 180.087 17.78 179.82 18.34L181.04 18.08L183.26 17.58C182.873 16.6067 182.5 15.7267 182.14 14.94L184.18 14.18C184.66 15.2067 185.347 16.88 186.24 19.2C186.667 18.48 187 17.7267 187.24 16.94C187.48 16.14 187.653 15.2067 187.76 14.14C187.88 13.0733 187.973 11.6933 188.04 10H185.94V7.62H188.12L188.2 4.14H190.44C190.44 5.07333 190.42 6.23333 190.38 7.62H194.8ZM177.62 5.28H185.2V7.58H177.62V5.28ZM214.88 6.96C214.867 8.96 214.813 11.0867 214.72 13.34C214.627 15.58 214.5 17.56 214.34 19.28C214.247 20.3067 213.98 21.04 213.54 21.48C213.113 21.9333 212.473 22.1733 211.62 22.2C210.94 22.2133 210.173 22.1867 209.32 22.12L208.92 19.94C209.747 20.0333 210.447 20.0733 211.02 20.06C211.46 20.0467 211.753 19.92 211.9 19.68C212.06 19.44 212.18 18.9733 212.26 18.28C212.407 16.9067 212.52 15.3933 212.6 13.74C212.693 12.0867 212.74 10.5333 212.74 9.08H211.96C211.693 11.2 211.367 12.9733 210.98 14.4C210.607 15.8133 210.04 17.1533 209.28 18.42C208.533 19.6733 207.493 20.94 206.16 22.22L204.5 20.6C205.713 19.52 206.693 18.4 207.44 17.24C208.2 16.0667 208.787 14.8333 209.2 13.54C209.613 12.2467 209.94 10.76 210.18 9.08H209.06C208.687 11.1867 208.173 12.9467 207.52 14.36C206.867 15.76 205.873 17.1467 204.54 18.52L202.96 16.96C204.133 15.84 205.053 14.6533 205.72 13.4C206.387 12.1333 206.893 10.6933 207.24 9.08H206.36C205.907 10.0933 205.333 11.1533 204.64 12.26L202.94 11.06C203.1 10.8467 203.233 10.6333 203.34 10.42H202.1V13.3C202.967 12.9667 203.5 12.76 203.7 12.68L203.9 14.98L202.1 15.72V22.6H199.92V16.6L197.36 17.64L196.7 15.28C197.153 15.1467 198.227 14.76 199.92 14.12V10.42H198.92C198.773 11.7 198.62 12.72 198.46 13.48L196.48 13.1C196.747 11.9533 196.96 10.7467 197.12 9.48C197.293 8.21333 197.407 6.99333 197.46 5.82L199.3 5.96C199.273 6.30667 199.22 7.02667 199.14 8.12H200.08V4.18H202.1V8.12H203.62V9.96C204.593 8.2 205.393 6.18667 206.02 3.92L208.08 4.44C207.773 5.49333 207.5 6.33333 207.26 6.96H214.88Z" fill="white"/>
<path d="M23.8076 23C22.0802 23 20.6804 22.3488 19.6082 21.0463C18.5361 19.6847 18 17.6126 18 14.8301C18 10.8044 19.0424 7.48906 21.1271 4.88417C23.2715 2.27928 26.071 0.651221 29.5258 0V4.17374C25.4754 5.41699 23.331 8.28829 23.0928 12.7876C23.2715 12.7284 23.5395 12.6988 23.8969 12.6988C25.386 12.6988 26.5475 13.2021 27.3814 14.2085C28.2749 15.2149 28.7216 16.4286 28.7216 17.8494C28.7216 19.2703 28.2451 20.4839 27.2921 21.4903C26.3986 22.4968 25.2371 23 23.8076 23ZM38.2818 23C36.5544 23 35.1546 22.3488 34.0825 21.0463C33.0103 19.6847 32.4742 17.6126 32.4742 14.8301C32.4742 10.8044 33.5166 7.48906 35.6014 4.88417C37.7457 2.27928 40.5452 0.651221 44 0V4.17374C39.9496 5.41699 37.8053 8.28829 37.567 12.7876C37.7457 12.7284 38.0137 12.6988 38.3711 12.6988C39.8603 12.6988 41.0218 13.2021 41.8557 14.2085C42.7491 15.2149 43.1959 16.4286 43.1959 17.8494C43.1959 19.2703 42.7194 20.4839 41.7663 21.4903C40.8729 22.4968 39.7113 23 38.2818 23Z" fill="white"/>
<path d="M36.135 76.96C38.2983 79.71 40.7733 82.2583 43.56 84.605C46.3467 86.9517 49.555 89.1883 53.185 91.315L49.28 97.585C45.2833 94.9083 41.8367 92.1217 38.94 89.225C36.08 86.3283 33.5317 83.1567 31.295 79.71V99.565H24.64V79.71C21.9267 83.67 19.195 87.0617 16.445 89.885C13.695 92.6717 10.285 95.44 6.215 98.19L2.145 92.195C9.185 88.1617 15.125 83.0833 19.965 76.96H3.52V70.69H24.64V63.265H14.245C13.0717 65.6483 11.8617 67.7567 10.615 69.59L4.95 66.18C8.32333 61.4133 10.8167 56.115 12.43 50.285L18.755 51.825C18.095 53.9883 17.5083 55.7117 16.995 56.995H24.64V48.965H31.295V56.995H48.07V63.265H31.295V70.69H51.755V76.96H36.135ZM91.19 74.925H107.965C107.965 79.545 107.598 85.1183 106.865 91.645C106.572 94.5417 105.802 96.595 104.555 97.805C103.308 99.0517 101.273 99.675 98.45 99.675C96.3967 99.675 94.05 99.4367 91.41 98.96L90.255 93.185C91.245 93.4417 92.4183 93.6433 93.775 93.79C95.1317 93.9367 96.305 94.01 97.295 94.01C98.505 94.01 99.4033 93.735 99.99 93.185C100.613 92.635 101.072 91.7183 101.365 90.435C102.062 86.4017 102.355 82.9 102.245 79.93H86.185V53.035H90.31C90.9333 51.2383 91.4467 49.625 91.85 48.195L97.79 49.46C97.6433 50.23 97.2767 51.4217 96.69 53.035H105.765C105.838 57.9117 105.582 62.6417 104.995 67.225C104.702 69.4983 104.097 71.1117 103.18 72.065C102.3 72.9817 100.833 73.44 98.78 73.44C97.3133 73.44 96.0117 73.275 94.875 72.945L93.995 67.995C94.985 68.435 95.9933 68.655 97.02 68.655C97.7167 68.655 98.23 68.4533 98.56 68.05C98.89 67.61 99.165 66.9133 99.385 65.96C99.605 64.8233 99.77 63.5767 99.88 62.22C99.99 60.8267 100.027 59.58 99.99 58.48H91.19V61.56L94.985 58.81C96.5617 60.79 98.0283 62.7883 99.385 64.805L95.15 67.775C93.72 65.4283 92.4 63.4667 91.19 61.89V74.925ZM58.465 50.23H84.26V63.32H58.465V50.23ZM65.615 54.96H63.14V58.865H65.615V54.96ZM72.6 58.865V54.96H70.125V58.865H72.6ZM77.165 58.865H79.585V54.96H77.165V58.865ZM57.365 65.465H84.755V69.535H57.365V65.465ZM85.085 85.925L80.795 89.115L84.81 92.195C84.8467 92.2317 85.14 92.47 85.69 92.91L82.17 96.98C80.2633 95.22 77.99 93.295 75.35 91.205L76.065 95.495L74.36 96.155C72.0133 97.0717 70.4183 97.7133 69.575 98.08C67.7417 98.85 66.2017 99.5833 64.955 100.28L62.81 96.045C63.5433 95.495 63.91 94.7067 63.91 93.68V91.865C62.04 93.1117 60.2617 94.1933 58.575 95.11L55.88 90.16C60.4267 87.85 64.0017 85.32 66.605 82.57H59.455V71.515H83.27V82.57H82.17L85.085 85.925ZM78.045 75.585H64.79V78.115H78.045V75.585ZM69.3 93.075L74.635 90.655L71.005 87.85L73.92 84L76.505 85.925C78.1183 84.8617 79.585 83.7433 80.905 82.57H73.7C72.16 84.5133 70.6933 86.145 69.3 87.465V93.075ZM85.855 83.395H99.88V88.785H85.855V83.395Z" fill="white"/>
</svg>
