<svg width="26" height="23" viewBox="0 0 26 23" fill="none" xmlns="http://www.w3.org/2000/svg">
<path d="M5.80756 23C4.08018 23 2.68041 22.3488 1.60825 21.0463C0.536082 19.6847 0 17.6126 0 14.8301C0 10.8044 1.04238 7.48906 3.12715 4.88417C5.27148 2.27928 8.07102 0.651221 11.5258 0V4.17374C7.47537 5.41699 5.33104 8.28829 5.09278 12.7876C5.27148 12.7284 5.53952 12.6988 5.89691 12.6988C7.38603 12.6988 8.54754 13.2021 9.38144 14.2085C10.2749 15.2149 10.7216 16.4286 10.7216 17.8494C10.7216 19.2703 10.2451 20.4839 9.2921 21.4903C8.39863 22.4968 7.23711 23 5.80756 23ZM20.2818 23C18.5544 23 17.1546 22.3488 16.0825 21.0463C15.0103 19.6847 14.4742 17.6126 14.4742 14.8301C14.4742 10.8044 15.5166 7.48906 17.6014 4.88417C19.7457 2.27928 22.5452 0.651221 26 0V4.17374C21.9496 5.41699 19.8053 8.28829 19.567 12.7876C19.7457 12.7284 20.0137 12.6988 20.3711 12.6988C21.8603 12.6988 23.0218 13.2021 23.8557 14.2085C24.7491 15.2149 25.1959 16.4286 25.1959 17.8494C25.1959 19.2703 24.7194 20.4839 23.7663 21.4903C22.8729 22.4968 21.7113 23 20.2818 23Z" fill="white"/>
</svg>
